<svg width="120" height="14" viewBox="0 0 120 14" fill="none" xmlns="http://www.w3.org/2000/svg">
<path d="M115.928 6.18333C114.808 6.4046 113.685 6.62586 112.574 6.88333C111.316 7.17701 110.051 7.4546 108.81 7.80862C107.337 8.23103 105.869 8.67356 104.405 9.12012C103.346 9.44195 102.312 9.83621 101.257 10.1621C100.71 10.331 100.158 10.4557 99.5985 10.5724C99.1685 10.6609 98.7467 10.7736 98.3127 10.85C98.1789 10.8621 98.045 10.8661 97.9112 10.8621C97.9599 10.681 98.0207 10.508 98.0734 10.327C98.1261 10.146 98.1748 9.96092 98.2275 9.77586C98.3898 9.19655 98.5682 8.62126 98.7102 8.03793C98.8035 7.6477 98.8887 7.25345 98.9536 6.8592C98.986 6.64598 99.0063 6.4408 99.0103 6.22759C99.0144 6.03046 98.9698 5.83333 98.9414 5.64023C98.8887 5.29828 98.7508 4.96034 98.5601 4.67069C98.4466 4.50172 98.3046 4.35287 98.1343 4.24023C97.9477 4.11552 97.7368 4.03506 97.5177 3.97874C97.3393 3.93046 97.1405 3.92241 96.958 3.90632C96.7796 3.89023 96.6052 3.9023 96.4267 3.91437C95.9724 3.94253 95.5303 4.09138 95.1004 4.22012C94.7678 4.32069 94.4393 4.41724 94.1067 4.51782C93.5348 4.68678 92.9588 4.85172 92.3951 5.03678C91.1823 5.43506 89.9615 5.81322 88.7569 6.23161C87.2724 6.75057 85.7838 7.26552 84.2993 7.78046C82.9244 8.2592 81.5494 8.73391 80.1582 9.16437C79.3024 9.42989 78.4344 9.65517 77.5705 9.88448C76.7025 10.1178 75.8305 10.323 74.9422 10.4557C74.0377 10.5603 73.113 10.6167 72.2004 10.5282C71.9205 10.4799 71.6528 10.4155 71.3851 10.319C71.2148 10.2345 71.0566 10.1379 70.9025 10.0333C70.7808 9.92874 70.6632 9.82012 70.5536 9.69943C70.5171 9.64713 70.4847 9.59081 70.4522 9.53448C70.3711 9.27701 70.3184 9.01954 70.2738 8.75402C70.2413 8.27931 70.2454 7.80057 70.2373 7.32586C70.2292 6.88333 70.2211 6.44483 70.2129 6.00632C70.2008 5.33448 70.1886 4.66264 70.0994 3.99483C69.9858 3.13793 69.8033 2.24483 69.3287 1.50862C69.2192 1.33563 69.0692 1.17471 68.9313 1.02184C68.7893 0.864943 68.6108 0.728161 68.4405 0.603448C68.116 0.366092 67.7631 0.193103 67.3738 0.0844828C67.1791 0.0321839 66.9682 0.0241379 66.7694 0.00804598C66.7167 0 66.6721 0 66.6315 0C66.4855 0 66.3395 0.016092 66.1935 0.0281609C65.7068 0.0724138 65.216 0.156897 64.7414 0.277586C64.3034 0.39023 63.8816 0.559195 63.4557 0.712069C63.0379 0.864943 62.6161 1.00977 62.1983 1.16264C61.2939 1.50057 60.4015 1.88276 59.5173 2.27299C58.6899 2.63908 57.8787 3.03333 57.0675 3.43563C56.6173 3.66092 56.1631 3.88218 55.721 4.12356C55.0477 4.48966 54.3784 4.85977 53.7051 5.22586C52.679 5.78908 51.6528 6.34828 50.6307 6.91149C49.4788 7.54713 48.3269 8.18276 47.175 8.81839C45.7351 9.61092 44.275 10.3713 42.7621 11.019C42.1578 11.2644 41.5453 11.4937 40.9288 11.7109C40.3204 11.9241 39.6999 12.0971 39.0631 12.2017C38.5642 12.258 38.0694 12.2862 37.5705 12.246C37.4082 12.2178 37.2541 12.1776 37.1 12.1293C37.0026 12.077 36.9094 12.0207 36.8201 11.9603C36.7066 11.8598 36.6052 11.7552 36.5038 11.6385C36.4754 11.5983 36.451 11.558 36.4307 11.5178C36.3334 11.2322 36.2766 10.9345 36.2279 10.6328C36.1833 10.1943 36.159 9.75172 36.1306 9.31322L36.0373 8.01379C35.9886 7.32184 35.9116 6.62184 35.7858 5.93793C35.7128 5.54368 35.583 5.15747 35.4533 4.77931C35.3072 4.35287 35.1207 3.93851 34.8935 3.54828C34.6988 3.21839 34.4271 2.92471 34.1472 2.66322C33.8552 2.38563 33.5104 2.1523 33.1657 1.94713C32.8209 1.74195 32.4356 1.59713 32.0544 1.48046C31.5879 1.33563 31.0769 1.2954 30.5901 1.2592C28.6879 1.11437 26.7938 1.51264 24.9402 1.9069C23.0501 2.3092 21.1843 2.84023 19.3348 3.3954C18.4993 3.64483 17.6516 3.88621 16.8282 4.17586C15.51 4.63851 14.2 5.12529 12.8939 5.62012C10.7443 6.43678 8.60677 7.29368 6.48144 8.17874C5.90955 8.41609 5.34172 8.65747 4.76982 8.89885C4.25472 9.12012 3.74366 9.36149 3.23667 9.59885C2.15372 10.1098 1.07889 10.6448 0 11.1718C1.9712 10.6126 3.92213 9.99713 5.89738 9.45C7.48733 9.01149 9.06916 8.55287 10.651 8.07816C12.3951 7.55115 14.1351 7.00402 15.867 6.42874C16.3658 6.26379 16.8647 6.09483 17.3636 5.92184C18.2519 5.61609 19.1523 5.34253 20.0487 5.06494C21.379 4.65057 22.7134 4.25632 24.0641 3.91035C24.7374 3.73736 25.4147 3.58448 26.0961 3.43161C26.8343 3.26667 27.5684 3.11379 28.3188 3.00115C29.2436 2.88851 30.1805 2.85632 31.1053 2.9569C31.4297 3.01322 31.738 3.08966 32.0422 3.2023C32.3058 3.33103 32.5492 3.47586 32.7925 3.6408C32.9953 3.80977 33.186 3.98276 33.3604 4.18391C33.5267 4.41724 33.6605 4.66264 33.7781 4.92011C34.0093 5.50747 34.1837 6.11092 34.2851 6.73448C34.3987 7.67184 34.4555 8.61724 34.5163 9.55862C34.5285 9.7477 34.5407 9.93276 34.5488 10.1218C34.5691 10.5362 34.6177 10.9466 34.6826 11.3569C34.711 11.542 34.7475 11.723 34.7962 11.908C34.8449 12.0931 34.9381 12.2661 35.0233 12.4351C35.1126 12.6121 35.2626 12.7649 35.3843 12.9178C35.4735 13.0184 35.5668 13.1149 35.6682 13.2034C35.7777 13.292 35.8872 13.3764 36.0008 13.4609C36.3293 13.6741 36.6822 13.8109 37.0594 13.8954C37.4447 13.9839 37.8544 14 38.2519 14C39.1807 14 40.1014 13.8149 40.9815 13.5494C41.4115 13.4207 41.8333 13.2638 42.2551 13.1069C42.681 12.95 43.1028 12.7851 43.5206 12.6121C44.4332 12.2299 45.3174 11.7954 46.1975 11.3489C46.5828 11.1517 46.9682 10.9626 47.3454 10.7534C47.6171 10.6006 47.8929 10.4517 48.1647 10.2989C48.984 9.84425 49.8073 9.38966 50.6267 8.93104C51.5757 8.40402 52.5248 7.87701 53.478 7.35402C54.4758 6.80287 55.4776 6.25172 56.4754 5.70057C56.9621 5.43103 57.461 5.18161 57.9598 4.93218C59.0509 4.38506 60.1541 3.86207 61.2776 3.38333C62.0118 3.08161 62.754 2.79598 63.5084 2.53448C64.2507 2.27701 64.9929 2.00747 65.7717 1.87471C66.1164 1.83851 66.4571 1.81437 66.8059 1.83851C66.8546 1.85057 66.9033 1.86264 66.9519 1.87874C67.0533 1.93103 67.1547 1.98736 67.2521 2.05172C67.3819 2.16437 67.5036 2.28103 67.6171 2.40977C67.6861 2.51034 67.7429 2.61092 67.7996 2.71552C67.9659 3.17414 68.0552 3.64885 68.1363 4.13161C68.2012 4.75115 68.2052 5.37471 68.2093 5.99425C68.2093 6.43678 68.2133 6.87529 68.2174 7.31379C68.2174 7.8046 68.2052 8.29943 68.2336 8.79023C68.2458 9.01149 68.2904 9.23276 68.3229 9.45C68.3513 9.63506 68.3878 9.81609 68.4324 9.99713C68.481 10.1983 68.5824 10.3874 68.6636 10.5764C68.7163 10.681 68.7812 10.7776 68.8542 10.8661C68.9434 10.9868 69.0367 11.1034 69.1341 11.2121C69.2557 11.3529 69.4058 11.4736 69.5518 11.5902C69.7222 11.727 69.8966 11.8477 70.0791 11.9684C70.2332 12.069 70.4036 12.1414 70.5699 12.2098C70.7808 12.2983 70.9795 12.3707 71.1945 12.431C71.6082 12.5477 72.0544 12.5839 72.4802 12.6201C72.9669 12.6563 73.4577 12.6322 73.9444 12.604C74.8368 12.5557 75.721 12.423 76.597 12.2339C77.5421 12.0287 78.4709 11.7471 79.4038 11.4897C81.2127 10.9868 82.969 10.3109 84.7374 9.68736C85.2768 9.49425 85.8163 9.28908 86.3517 9.09195C87.5684 8.6454 88.7771 8.18678 89.998 7.76035C91.0079 7.40632 92.0179 7.0523 93.0278 6.70632C93.5023 6.54138 93.9891 6.4046 94.4677 6.25575C94.7272 6.17529 94.9868 6.09483 95.2464 6.01034C95.652 5.88161 96.0657 5.75287 96.4835 5.67644C96.6457 5.67241 96.8039 5.67644 96.9661 5.68851C96.9945 5.69253 97.0189 5.70057 97.0473 5.70862C97.0797 5.81322 97.104 5.91379 97.1243 6.01839C97.1365 6.16322 97.1324 6.30805 97.1243 6.45287C96.9743 7.25345 96.739 8.03793 96.4835 8.81437C96.3537 9.21264 96.232 9.61092 96.086 10.0052C96.0373 10.1218 95.9887 10.2385 95.944 10.3552C95.871 10.5443 95.8629 10.7575 95.8507 10.9546C95.8629 11.0431 95.8751 11.1356 95.8873 11.2241C95.8994 11.3328 95.9197 11.4374 95.9562 11.5379C96.0089 11.731 96.1103 11.9161 96.2036 12.0931C96.2361 12.1333 96.2685 12.1736 96.2969 12.2138C96.3659 12.3345 96.4551 12.4351 96.5687 12.5115C96.7552 12.6644 96.9378 12.769 97.1689 12.8454C97.5745 12.9741 98.0004 12.9943 98.4222 12.958C98.8278 12.9218 99.2334 12.8414 99.6309 12.7569C100.012 12.6764 100.393 12.6 100.771 12.5155C101.704 12.3103 102.612 11.9885 103.508 11.6586C105.24 11.023 106.964 10.3632 108.676 9.67931C111.048 8.72989 113.441 7.84483 115.835 6.9477C116.451 6.71437 117.068 6.48103 117.684 6.25172C118.455 5.96609 119.217 5.66839 120 5.41092C118.633 5.61609 117.278 5.90977 115.928 6.17529V6.18333ZM96.9621 5.66839C96.9905 5.67644 97.0148 5.68851 97.0432 5.70057L96.9621 5.66839ZM97.9233 10.9023L97.9882 10.9264C97.968 10.9184 97.9436 10.9103 97.9233 10.9023Z" fill="#FF9B04"/>
</svg>
