<svg width="165" height="162" viewBox="0 0 165 162" fill="currentColor" xmlns="http://www.w3.org/2000/svg">
<path d="M37.873 25.4073C37.2934 25.868 36.6902 26.1987 36.0397 26.3995C35.3891 26.6003 34.7504 26.6594 34.0999 26.6003C33.4494 26.5413 32.8461 26.3523 32.2547 26.0334C31.6752 25.7145 31.1547 25.2774 30.7053 24.7104C30.244 24.1435 29.9246 23.5411 29.7472 22.9032C29.5698 22.2654 29.5106 21.6275 29.5934 20.9779C29.6762 20.3282 29.8773 19.714 30.2085 19.1352C30.5397 18.5446 30.9891 18.0249 31.5687 17.5643C32.1128 17.1272 32.6924 16.8083 33.3192 16.5957C33.9343 16.3949 34.5612 16.3358 35.1881 16.4185L35.1289 17.0682C34.5375 17.0091 33.9816 17.0682 33.4612 17.2453C32.9408 17.4225 32.4558 17.6942 32.0063 18.0485C31.5096 18.4501 31.1192 18.899 30.8354 19.4069C30.5515 19.9148 30.3741 20.4464 30.3031 21.0133C30.244 21.5803 30.2795 22.1355 30.4451 22.6788C30.5988 23.234 30.8827 23.7537 31.273 24.238C31.6633 24.7223 32.1128 25.1002 32.6214 25.3837C33.13 25.6554 33.6623 25.8208 34.2182 25.8798C34.7859 25.9389 35.3418 25.8798 35.8977 25.7145C36.4537 25.5491 36.9859 25.2656 37.4827 24.864C37.9321 24.4978 38.2988 24.0844 38.5827 23.6238C38.8666 23.1631 39.044 22.6316 39.1149 22.0291L39.7655 22.1118C39.7182 22.7497 39.5289 23.3403 39.1977 23.9072C38.8666 24.4742 38.4289 24.9703 37.8848 25.4073H37.873Z" fill="currentColor"/>
<path d="M45.8096 20.0093C45.1709 20.3873 44.5203 20.6235 43.8461 20.7298C43.1719 20.8361 42.5214 20.8007 41.8827 20.6472C41.244 20.4936 40.6644 20.2101 40.1322 19.8203C39.5999 19.4187 39.1504 18.9226 38.7956 18.2966C38.4289 17.6824 38.2042 17.0445 38.1096 16.3831C38.0149 15.7334 38.0623 15.0838 38.2278 14.4577C38.3934 13.8199 38.6891 13.2411 39.1031 12.7096C39.5171 12.178 40.0375 11.7174 40.6762 11.3512C41.3149 10.9732 41.9655 10.737 42.6397 10.6307C43.3139 10.5244 43.9644 10.5598 44.5913 10.7134C45.2182 10.8669 45.7977 11.1386 46.3418 11.5402C46.8741 11.93 47.3236 12.4497 47.702 13.0757C48.0687 13.7018 48.2934 14.3396 48.3881 15.0011C48.4709 15.6625 48.4354 16.3004 48.258 16.9264C48.0924 17.5524 47.7967 18.1312 47.3827 18.6628C46.9687 19.1943 46.4483 19.655 45.8096 20.0211V20.0093ZM45.4666 19.4305C46.0106 19.1116 46.4601 18.7218 46.8149 18.2612C47.1698 17.8005 47.4182 17.3044 47.5601 16.761C47.702 16.2177 47.7375 15.6625 47.6547 15.0956C47.5719 14.5286 47.3827 13.9734 47.0633 13.4419C46.744 12.8986 46.3537 12.4497 45.8924 12.119C45.4311 11.7764 44.9343 11.5402 44.3902 11.3984C43.8461 11.2567 43.2902 11.2331 42.7106 11.3158C42.1311 11.3984 41.5752 11.6111 41.0311 11.93C40.487 12.2489 40.0375 12.6387 39.6827 13.0994C39.3278 13.56 39.0795 14.0679 38.9375 14.6113C38.7956 15.1546 38.7601 15.7098 38.8311 16.2768C38.902 16.8437 39.1031 17.3989 39.4225 17.9422C39.7418 18.4856 40.1322 18.9226 40.5934 19.2652C41.0547 19.6077 41.5633 19.8439 42.1074 19.9857C42.6515 20.1274 43.2192 20.1511 43.787 20.0684C44.3547 19.9857 44.9225 19.7731 45.4666 19.4542V19.4305Z" fill="currentColor"/>
<path d="M52.2085 16.4657L48.5655 7.22885L49.1332 7.00443L59.0332 12.8159L58.7257 12.934L55.4139 4.53574L56.0881 4.27588L59.7311 13.5128L59.1752 13.7254L49.2633 7.91394L49.5709 7.79583L52.8827 16.1941L52.2085 16.4539V16.4657Z" fill="currentColor"/>
<path d="M64.6279 12.1898L62.3924 3.18919L58.9149 4.05146L58.7612 3.41362L66.402 1.52371L66.5558 2.16156L63.0902 3.02382L65.3257 12.0245L64.6279 12.2017V12.1898Z" fill="currentColor"/>
<path d="M68.1526 11.2213L71.4053 0.803189L72.1268 0.708694L77.9461 9.9574L77.1773 10.0519L71.6773 1.21661L71.9848 1.18117L68.9451 11.1268L68.1762 11.2331L68.1526 11.2213ZM69.4537 8.23286L69.6192 7.59502L75.5214 6.82725L75.8408 7.40603L69.4655 8.23286H69.4537Z" fill="currentColor"/>
<path d="M83.5053 10.0637C82.7719 10.0637 82.0859 9.91015 81.459 9.65029C80.8322 9.39043 80.2881 9.02426 79.8386 8.5636C79.3773 8.10293 79.0343 7.55959 78.7859 6.95718C78.5375 6.35478 78.4192 5.66969 78.4311 4.94916C78.4311 4.21682 78.5848 3.55536 78.8451 2.95295C79.1053 2.35055 79.4838 1.81901 79.9569 1.38197C80.43 0.93312 80.9859 0.590575 81.6128 0.354337C82.2397 0.1181 82.9257 -1.90893e-05 83.659 0.0117928C84.3569 0.0117928 85.0074 0.141724 85.6225 0.377961C86.2257 0.614199 86.7461 0.968556 87.1719 1.44103L86.7106 1.90169C86.2967 1.47647 85.8235 1.16936 85.3149 0.980367C84.8063 0.791377 84.2623 0.68507 83.6827 0.673258C83.044 0.673258 82.4526 0.767754 81.9085 0.968556C81.3644 1.18117 80.8795 1.47647 80.4773 1.86626C80.0633 2.25605 79.744 2.71671 79.5192 3.23644C79.2827 3.76797 79.1644 4.33494 79.1526 4.96097C79.1526 5.587 79.2472 6.16579 79.4601 6.69732C79.673 7.22885 79.9805 7.70133 80.3709 8.10293C80.7612 8.50454 81.2343 8.82346 81.7784 9.04788C82.3225 9.27231 82.902 9.39043 83.5407 9.40224C84.1203 9.40224 84.6644 9.33137 85.1848 9.15419C85.7053 8.97701 86.1784 8.68172 86.616 8.2683L87.0655 8.74078C86.6278 9.20144 86.0956 9.53217 85.4805 9.7566C84.8655 9.98102 84.2149 10.0873 83.5053 10.0755V10.0637Z" fill="currentColor"/>
<path d="M90.9569 10.4653L92.0687 1.26385L88.5203 0.838625L88.6031 0.188971L96.4214 1.13392L96.3386 1.78358L92.7902 1.35835L91.6784 10.5598L90.9569 10.4771V10.4653Z" fill="currentColor"/>
<path d="M97.5687 10.8433L103.53 12.2843L103.376 12.9222L96.7171 11.304L99.059 1.66546L105.517 3.22463L105.363 3.86247L99.6149 2.46866L97.5805 10.8433H97.5687ZM98.5977 6.24847L103.826 7.51234L103.672 8.12656L98.444 6.86269L98.5977 6.24847Z" fill="currentColor"/>
<path d="M105.706 10.0755L105.919 9.47311L109.361 10.6661L109.148 11.2685L105.706 10.0755Z" fill="currentColor"/>
<path d="M110.248 15.3436L114.554 6.40202L115.098 6.66188L117.558 17.8596L117.262 17.7178L121.177 9.57942L121.828 9.89834L117.522 18.8399L116.99 18.5801L114.518 7.3706L114.814 7.51234L110.899 15.6507L110.248 15.3318V15.3436Z" fill="currentColor"/>
<path d="M123.638 22.8324C123.034 22.4189 122.538 21.9228 122.159 21.3559C121.781 20.7889 121.532 20.1865 121.414 19.5487C121.284 18.9108 121.296 18.2612 121.438 17.6115C121.579 16.9618 121.852 16.3476 122.254 15.757C122.656 15.1664 123.141 14.694 123.708 14.3396C124.264 13.9853 124.868 13.749 125.518 13.6427C126.169 13.5364 126.819 13.5482 127.482 13.7018C128.144 13.8553 128.771 14.1388 129.386 14.5522C129.989 14.9656 130.486 15.4617 130.864 16.0287C131.243 16.5957 131.491 17.1863 131.61 17.8241C131.728 18.462 131.728 19.0998 131.598 19.7495C131.468 20.3991 131.196 21.0251 130.782 21.6157C130.368 22.2063 129.883 22.6906 129.315 23.045C128.759 23.3993 128.156 23.6356 127.517 23.7419C126.878 23.8482 126.228 23.8364 125.565 23.6828C124.903 23.5293 124.276 23.2458 123.661 22.8324H123.638ZM124.016 22.289C124.536 22.6434 125.081 22.8914 125.648 23.0213C126.216 23.1513 126.772 23.1631 127.328 23.0568C127.884 22.9505 128.404 22.7497 128.889 22.4426C129.374 22.1355 129.788 21.722 130.143 21.2141C130.498 20.6944 130.746 20.1511 130.853 19.5959C130.959 19.0407 130.971 18.4856 130.876 17.9304C130.782 17.3753 130.569 16.8555 130.249 16.3713C129.93 15.887 129.504 15.4617 128.984 15.1074C128.463 14.753 127.919 14.505 127.352 14.375C126.784 14.2451 126.216 14.2333 125.66 14.3278C125.104 14.4223 124.584 14.6231 124.099 14.9302C123.614 15.2373 123.2 15.6507 122.833 16.1705C122.478 16.6784 122.242 17.2217 122.124 17.7769C122.005 18.3438 121.993 18.899 122.1 19.4542C122.206 20.0093 122.419 20.529 122.739 21.0133C123.058 21.4976 123.484 21.9228 124.004 22.2772L124.016 22.289Z" fill="currentColor"/>
<path d="M131.432 29.0336C130.888 28.5375 130.462 27.9705 130.143 27.3445C129.824 26.7185 129.67 26.1397 129.67 25.5963L130.273 25.4192C130.285 25.9034 130.427 26.435 130.711 27.0138C130.983 27.5925 131.361 28.1005 131.858 28.5493C132.343 28.9982 132.804 29.2935 133.23 29.447C133.656 29.6006 134.046 29.636 134.401 29.5651C134.744 29.4824 135.04 29.3171 135.288 29.0454C135.572 28.7265 135.726 28.4076 135.726 28.065C135.726 27.7225 135.643 27.3681 135.477 27.0138C135.312 26.6476 135.099 26.2932 134.85 25.9153C134.602 25.5491 134.354 25.1711 134.105 24.7813C133.857 24.3915 133.656 24.0017 133.514 23.6238C133.372 23.234 133.325 22.8442 133.384 22.4544C133.443 22.0646 133.644 21.6748 133.999 21.2968C134.318 20.9543 134.708 20.7062 135.158 20.5881C135.607 20.47 136.104 20.4818 136.66 20.6472C137.204 20.8125 137.784 21.1787 138.387 21.722C138.789 22.0882 139.132 22.5134 139.428 22.9977C139.712 23.482 139.901 23.9427 139.996 24.4033L139.404 24.6514C139.286 24.1553 139.097 23.7064 138.836 23.2812C138.576 22.856 138.281 22.5016 137.949 22.1945C137.476 21.7693 137.039 21.474 136.601 21.3322C136.175 21.1787 135.785 21.1551 135.442 21.2378C135.099 21.3204 134.791 21.4976 134.543 21.7693C134.259 22.0882 134.105 22.4071 134.093 22.7497C134.093 23.0922 134.164 23.4348 134.33 23.8009C134.496 24.1671 134.709 24.5333 134.969 24.9112C135.229 25.2892 135.477 25.6672 135.714 26.0452C135.95 26.4232 136.152 26.813 136.293 27.2028C136.435 27.5925 136.483 27.9823 136.435 28.3721C136.388 28.7619 136.187 29.1399 135.844 29.5179C135.536 29.8604 135.146 30.0967 134.685 30.2148C134.224 30.3329 133.715 30.3093 133.171 30.1321C132.627 29.9549 132.047 29.5888 131.432 29.0336Z" fill="currentColor"/>
<path d="M154.532 74.592C154.449 73.8597 154.485 73.1628 154.662 72.5131C154.84 71.8635 155.124 71.2729 155.514 70.765C155.904 70.2453 156.401 69.8318 156.969 69.5011C157.548 69.1704 158.199 68.9696 158.92 68.8869C159.642 68.8042 160.328 68.8515 160.955 69.0286C161.593 69.2058 162.161 69.5011 162.67 69.9145C163.178 70.3279 163.592 70.824 163.912 71.4146C164.231 72.0052 164.444 72.6667 164.527 73.399C164.61 74.0959 164.574 74.7574 164.42 75.3834C164.267 76.0213 163.983 76.5764 163.581 77.0607L163.06 76.6709C163.427 76.1985 163.663 75.7024 163.793 75.159C163.912 74.6275 163.947 74.0723 163.876 73.5053C163.805 72.8793 163.628 72.3005 163.344 71.7926C163.06 71.2729 162.705 70.8477 162.256 70.4933C161.818 70.139 161.321 69.8909 160.765 69.7255C160.21 69.572 159.63 69.5247 159.003 69.5956C158.388 69.6665 157.82 69.8437 157.324 70.1271C156.827 70.4106 156.401 70.7768 156.058 71.2256C155.715 71.6745 155.467 72.1824 155.313 72.7376C155.159 73.2927 155.124 73.8951 155.195 74.533C155.265 75.0999 155.419 75.6315 155.668 76.1276C155.916 76.6237 156.271 77.0489 156.744 77.4151L156.33 77.923C155.821 77.545 155.407 77.0725 155.112 76.4938C154.804 75.915 154.615 75.2771 154.532 74.5802V74.592Z" fill="currentColor"/>
<path d="M154.922 84.1951C154.946 83.4628 155.088 82.7777 155.348 82.1516C155.608 81.5256 155.987 80.9941 156.448 80.5334C156.921 80.0728 157.465 79.7302 158.081 79.494C158.696 79.2577 159.37 79.1396 160.079 79.1632C160.801 79.1869 161.463 79.3286 162.067 79.6003C162.67 79.872 163.202 80.2499 163.64 80.7224C164.089 81.2067 164.432 81.7619 164.669 82.3879C164.905 83.0139 165.012 83.7108 165 84.4432C164.976 85.1755 164.834 85.8606 164.574 86.4866C164.302 87.1126 163.947 87.6442 163.474 88.093C163.001 88.5419 162.469 88.8962 161.854 89.1325C161.239 89.3805 160.564 89.4868 159.831 89.475C159.098 89.4514 158.435 89.3096 157.832 89.038C157.229 88.7663 156.708 88.3883 156.259 87.9158C155.821 87.4434 155.478 86.8882 155.242 86.2504C155.005 85.6125 154.899 84.9274 154.911 84.1951H154.922ZM155.585 84.2069C155.573 84.8448 155.668 85.4235 155.869 85.9669C156.07 86.5102 156.365 86.9827 156.756 87.3961C157.146 87.7977 157.596 88.1285 158.128 88.3529C158.648 88.5891 159.228 88.7072 159.855 88.7309C160.493 88.7427 161.073 88.6482 161.605 88.4356C162.138 88.223 162.599 87.9277 163.013 87.5379C163.427 87.1481 163.734 86.6874 163.971 86.1559C164.196 85.6243 164.326 85.0337 164.338 84.4077C164.349 83.7699 164.255 83.1911 164.054 82.6478C163.853 82.1044 163.557 81.6319 163.167 81.2185C162.776 80.8051 162.327 80.4862 161.806 80.2499C161.286 80.0137 160.706 79.8838 160.079 79.872C159.453 79.8601 158.873 79.9546 158.341 80.1673C157.808 80.3799 157.335 80.6752 156.921 81.0649C156.519 81.4547 156.2 81.9154 155.963 82.447C155.727 82.9785 155.608 83.5573 155.597 84.1951L155.585 84.2069Z" fill="currentColor"/>
<path d="M154.568 91.483L164.338 93.2666L164.231 93.869L154.071 99.208L154.13 98.8891L163.025 100.507L162.895 101.216L153.125 99.4324L153.231 98.8418L163.403 93.4911L163.344 93.81L154.449 92.1917L154.579 91.483H154.568Z" fill="currentColor"/>
<path d="M151.646 104.275L160.482 107.122L161.582 103.72L162.208 103.921L159.796 111.41L159.169 111.209L160.269 107.807L151.433 104.96L151.658 104.275H151.646Z" fill="currentColor"/>
<path d="M150.605 107.807L157.761 116.064L157.465 116.725L146.525 116.784L146.844 116.075H157.264L157.134 116.347L150.274 108.528L150.593 107.819L150.605 107.807ZM152.462 110.488L152.924 110.961L150.463 116.371L149.813 116.335L152.474 110.488H152.462Z" fill="currentColor"/>
<path d="M143.52 121.414C143.911 120.788 144.384 120.28 144.928 119.879C145.472 119.477 146.063 119.206 146.69 119.052C147.317 118.898 147.968 118.875 148.618 118.981C149.269 119.087 149.907 119.335 150.522 119.725C151.138 120.115 151.634 120.576 152.025 121.119C152.403 121.662 152.663 122.241 152.805 122.879C152.947 123.517 152.947 124.167 152.829 124.828C152.711 125.489 152.45 126.127 152.06 126.753C151.693 127.344 151.244 127.84 150.735 128.242C150.215 128.643 149.647 128.903 149.02 129.021L148.867 128.383C149.446 128.242 149.955 128.005 150.381 127.663C150.806 127.32 151.173 126.907 151.481 126.423C151.812 125.891 152.036 125.324 152.143 124.757C152.249 124.19 152.238 123.623 152.107 123.068C151.989 122.513 151.753 122.005 151.421 121.532C151.09 121.06 150.664 120.658 150.132 120.328C149.6 119.997 149.056 119.784 148.488 119.69C147.92 119.595 147.364 119.619 146.808 119.749C146.253 119.879 145.744 120.115 145.271 120.458C144.798 120.8 144.396 121.249 144.053 121.781C143.745 122.265 143.532 122.785 143.414 123.316C143.296 123.848 143.307 124.415 143.438 124.993L142.799 125.135C142.633 124.521 142.621 123.895 142.752 123.257C142.882 122.619 143.13 122.005 143.497 121.414H143.52Z" fill="currentColor"/>
<path d="M139.239 127.497L146.465 133.309L148.713 130.533L149.221 130.947L144.277 137.077L143.769 136.663L146.016 133.888L138.789 128.076L139.239 127.509V127.497Z" fill="currentColor"/>
<path d="M135.406 132.919L131.03 137.207L130.569 136.746L135.454 131.951L142.42 139.026L137.677 143.68L137.216 143.219L141.439 139.073L135.395 132.919H135.406ZM138.765 136.215L134.933 139.983L134.484 139.522L138.316 135.754L138.765 136.215Z" fill="currentColor"/>
<path d="M131.74 140.243L132.142 140.739L129.303 143.03L128.901 142.534L131.74 140.243Z" fill="currentColor"/>
<path d="M124.879 141.294L130.226 149.657L129.717 149.987L118.883 146.184L119.155 146.007L124.016 153.614L123.401 154.003L118.055 145.641L118.552 145.322L129.398 149.113L129.126 149.29L124.264 141.684L124.879 141.294Z" fill="currentColor"/>
<path d="M111.431 148.735C112.105 148.44 112.779 148.286 113.465 148.263C114.14 148.239 114.79 148.345 115.405 148.582C116.02 148.818 116.564 149.16 117.038 149.621C117.511 150.082 117.901 150.637 118.185 151.298C118.469 151.96 118.622 152.621 118.634 153.271C118.634 153.932 118.528 154.57 118.279 155.173C118.031 155.775 117.676 156.318 117.191 156.803C116.718 157.287 116.139 157.677 115.464 157.96C114.79 158.256 114.116 158.409 113.43 158.433C112.756 158.456 112.105 158.35 111.502 158.114C110.899 157.878 110.355 157.535 109.87 157.086C109.385 156.637 109.006 156.07 108.711 155.409C108.415 154.748 108.273 154.074 108.261 153.413C108.261 152.751 108.379 152.113 108.616 151.523C108.864 150.92 109.219 150.377 109.692 149.905C110.165 149.42 110.745 149.042 111.419 148.747L111.431 148.735ZM111.703 149.349C111.124 149.598 110.627 149.94 110.225 150.353C109.822 150.767 109.515 151.239 109.302 151.759C109.101 152.279 108.995 152.834 109.006 153.401C109.006 153.98 109.148 154.547 109.397 155.114C109.645 155.692 109.988 156.177 110.402 156.567C110.816 156.956 111.289 157.252 111.81 157.464C112.33 157.665 112.886 157.76 113.465 157.748C114.045 157.736 114.625 157.594 115.204 157.346C115.784 157.098 116.281 156.756 116.683 156.342C117.085 155.929 117.404 155.456 117.605 154.936C117.806 154.417 117.913 153.862 117.913 153.295C117.913 152.728 117.771 152.149 117.522 151.57C117.274 151.003 116.943 150.519 116.529 150.117C116.115 149.716 115.642 149.42 115.11 149.22C114.577 149.019 114.033 148.924 113.442 148.936C112.85 148.948 112.283 149.09 111.703 149.338V149.349Z" fill="currentColor"/>
<path d="M102.075 152.066C102.785 151.865 103.495 151.795 104.192 151.865C104.89 151.924 105.47 152.102 105.919 152.385L105.754 152.988C105.328 152.739 104.807 152.586 104.169 152.515C103.53 152.444 102.903 152.491 102.264 152.669C101.626 152.846 101.129 153.082 100.774 153.354C100.419 153.637 100.183 153.944 100.064 154.287C99.9461 154.629 99.9343 154.96 100.041 155.314C100.159 155.728 100.36 156.023 100.644 156.2C100.928 156.389 101.271 156.496 101.673 156.543C102.075 156.59 102.489 156.602 102.939 156.59C103.388 156.578 103.838 156.566 104.299 156.555C104.76 156.555 105.198 156.59 105.6 156.673C106.002 156.756 106.357 156.921 106.664 157.181C106.972 157.429 107.185 157.807 107.327 158.315C107.457 158.775 107.457 159.224 107.327 159.673C107.197 160.122 106.913 160.535 106.475 160.913C106.038 161.291 105.434 161.587 104.654 161.811C104.121 161.965 103.577 162.024 103.021 162.012C102.465 162.012 101.969 161.917 101.531 161.752L101.638 161.114C102.111 161.279 102.607 161.362 103.104 161.362C103.601 161.362 104.062 161.303 104.488 161.185C105.103 161.02 105.576 160.783 105.931 160.5C106.286 160.216 106.511 159.897 106.629 159.567C106.735 159.224 106.747 158.882 106.641 158.527C106.522 158.114 106.321 157.819 106.049 157.63C105.777 157.441 105.422 157.322 105.032 157.287C104.642 157.252 104.216 157.228 103.755 157.252C103.293 157.275 102.844 157.287 102.395 157.287C101.945 157.287 101.519 157.252 101.105 157.169C100.703 157.086 100.336 156.921 100.041 156.673C99.7332 156.425 99.5085 156.059 99.3784 155.562C99.2483 155.114 99.2601 154.665 99.402 154.216C99.544 153.767 99.8278 153.342 100.265 152.976C100.703 152.598 101.318 152.302 102.111 152.078L102.075 152.066Z" fill="currentColor"/>
<path d="M51.1203 147.613C51.7945 147.92 52.3504 148.322 52.8235 148.818C53.2848 149.314 53.6397 149.857 53.8644 150.472C54.0891 151.074 54.1956 151.712 54.1719 152.373C54.1483 153.035 53.9827 153.696 53.6752 154.358C53.3676 155.019 52.9655 155.574 52.4805 156.011C51.9956 156.46 51.4397 156.779 50.8246 156.992C50.2096 157.204 49.559 157.287 48.8967 157.252C48.2225 157.216 47.5601 157.039 46.8859 156.732C46.2472 156.437 45.7031 156.059 45.2537 155.598C44.7924 155.137 44.473 154.606 44.2719 154.003L44.887 153.767C45.0999 154.322 45.3956 154.795 45.7859 155.185C46.1762 155.574 46.6257 155.881 47.158 156.129C47.7375 156.401 48.3171 156.543 48.8967 156.578C49.4881 156.614 50.044 156.531 50.5762 156.342C51.1085 156.153 51.5934 155.87 52.0192 155.48C52.4451 155.09 52.7881 154.618 53.0601 154.051C53.3203 153.484 53.4623 152.917 53.4859 152.338C53.5096 151.759 53.4268 151.216 53.2257 150.684C53.0246 150.153 52.7289 149.68 52.3268 149.255C51.9246 148.83 51.4397 148.475 50.8601 148.216C50.3397 147.967 49.8074 147.826 49.2633 147.778C48.7192 147.731 48.1633 147.802 47.5956 148.015L47.3827 147.4C47.9741 147.164 48.5891 147.07 49.2397 147.117C49.8902 147.164 50.5289 147.341 51.1676 147.637L51.1203 147.613Z" fill="currentColor"/>
<path d="M42.7698 142.888C43.3848 143.29 43.8934 143.774 44.2719 144.329C44.6504 144.885 44.9225 145.475 45.0644 146.125C45.2063 146.763 45.2182 147.412 45.0881 148.062C44.9698 148.712 44.7096 149.338 44.3192 149.94C43.9289 150.542 43.4558 151.027 42.8999 151.393C42.3558 151.759 41.7526 152.007 41.1139 152.137C40.4752 152.267 39.8128 152.255 39.1504 152.125C38.4881 151.984 37.8494 151.724 37.2343 151.31C36.6192 150.909 36.1106 150.424 35.7321 149.869C35.3418 149.314 35.0816 148.723 34.9397 148.086C34.7977 147.448 34.7859 146.81 34.9042 146.16C35.0225 145.511 35.2827 144.873 35.6848 144.27C36.087 143.656 36.5601 143.172 37.116 142.806C37.6719 142.44 38.2633 142.191 38.902 142.073C39.5407 141.943 40.1913 141.955 40.8537 142.085C41.516 142.227 42.1547 142.487 42.7698 142.9V142.888ZM42.4031 143.444C41.8709 143.101 41.3268 142.865 40.7472 142.747C40.1795 142.628 39.6117 142.628 39.0676 142.747C38.5235 142.865 38.0031 143.077 37.53 143.396C37.0569 143.715 36.6429 144.14 36.2999 144.66C35.9569 145.192 35.7321 145.735 35.6257 146.29C35.5192 146.845 35.5311 147.4 35.6375 147.956C35.7558 148.511 35.9687 149.019 36.2999 149.491C36.6311 149.964 37.0569 150.377 37.5891 150.731C38.1214 151.074 38.6655 151.31 39.2451 151.428C39.8246 151.546 40.3805 151.546 40.9365 151.428C41.4924 151.322 42.001 151.109 42.4741 150.791C42.9472 150.472 43.3612 150.046 43.7042 149.527C44.0472 149.007 44.2719 148.464 44.3784 147.897C44.4848 147.33 44.473 146.774 44.3547 146.219C44.2364 145.664 44.0117 145.156 43.6805 144.672C43.3494 144.199 42.9235 143.786 42.3913 143.432L42.4031 143.444Z" fill="currentColor"/>
<path d="M36.7494 138.707L30.0666 146.054L29.6171 145.641L30.4569 134.207L30.6934 134.431L24.6139 141.117L24.0816 140.632L30.7644 133.285L31.202 133.687L30.3741 145.133L30.1375 144.908L36.2171 138.223L36.7494 138.707Z" fill="currentColor"/>
<path d="M27.4171 129.482L20.3321 135.482L22.6504 138.211L22.1537 138.636L17.0558 132.636L17.5526 132.21L19.8709 134.939L26.9558 128.939L27.4289 129.494L27.4171 129.482Z" fill="currentColor"/>
<path d="M24.9687 126.742L14.1698 128.478L13.7676 127.875L19.4805 118.556L19.9182 119.206L14.4418 128.053L14.2644 127.793L24.5311 126.092L24.9687 126.742ZM21.716 126.907L21.0773 127.049L17.7655 122.111L18.144 121.568L21.7278 126.907H21.716Z" fill="currentColor"/>
<path d="M17.1031 113.536C17.4343 114.197 17.6235 114.859 17.6709 115.544C17.7182 116.217 17.6472 116.867 17.4461 117.481C17.2451 118.095 16.9257 118.65 16.4881 119.146C16.0504 119.643 15.5063 120.056 14.8558 120.375C14.2053 120.694 13.5429 120.871 12.8805 120.918C12.2182 120.954 11.5795 120.871 10.9644 120.647C10.3494 120.422 9.79344 120.091 9.29667 119.643C8.79989 119.194 8.38591 118.639 8.05473 117.977C7.7472 117.351 7.55796 116.713 7.48699 116.064C7.41602 115.414 7.49882 114.8 7.72355 114.197L8.3386 114.398C8.14935 114.965 8.09021 115.52 8.14935 116.064C8.20849 116.607 8.37408 117.138 8.62247 117.658C8.90634 118.225 9.26118 118.709 9.69882 119.099C10.1364 119.489 10.6214 119.784 11.1537 119.961C11.6859 120.15 12.2418 120.221 12.8096 120.186C13.3891 120.15 13.9451 119.997 14.5128 119.725C15.0687 119.454 15.5418 119.099 15.9203 118.662C16.2988 118.225 16.5709 117.741 16.7601 117.209C16.9375 116.678 17.0085 116.111 16.9612 115.532C16.9139 114.953 16.7483 114.374 16.4762 113.807C16.216 113.288 15.8967 112.839 15.5063 112.461C15.116 112.083 14.6311 111.788 14.0633 111.599L14.2881 110.984C14.8913 111.173 15.4354 111.481 15.9203 111.929C16.3934 112.378 16.7956 112.91 17.1031 113.536Z" fill="currentColor"/>
<path d="M14.1816 106.685L5.41709 109.756L6.59989 113.122L5.98484 113.335L3.38269 105.917L3.99774 105.705L5.18054 109.071L13.9451 106L14.1816 106.685Z" fill="currentColor"/>
<path d="M11.5913 100.602L10.2547 94.625L10.8934 94.4833L12.3838 101.169L2.68484 103.33L1.24183 96.8574L1.88054 96.7157L3.16978 102.48L11.5913 100.602ZM7.01387 101.712L5.8429 96.4677L6.46978 96.3259L7.64075 101.57L7.01387 101.712Z" fill="currentColor"/>
<path d="M7.30957 93.621L6.67086 93.7037L6.2214 90.0892L6.86011 90.0065L7.30957 93.621Z" fill="currentColor"/>
<path d="M10.0655 87.2544L0.129998 87.4197V86.8055L9.04828 79.5885V79.9192L0.0117188 80.0609V79.3404L9.93537 79.175V79.7656L1.0171 86.9945V86.6638L10.0537 86.522V87.2426L10.0655 87.2544Z" fill="currentColor"/>
<path d="M10.8225 71.9344C10.716 72.6667 10.4913 73.3163 10.1601 73.9069C9.81709 74.4975 9.39129 74.9818 8.87086 75.3834C8.35043 75.785 7.77086 76.0567 7.13215 76.2221C6.49344 76.3874 5.81925 76.4229 5.10957 76.3166C4.39989 76.2103 3.76118 75.9977 3.19344 75.6551C2.6257 75.3126 2.15258 74.8755 1.76226 74.3558C1.37193 73.8243 1.09989 73.2337 0.946127 72.5722C0.792364 71.9107 0.75688 71.2256 0.863332 70.4933C0.969783 69.761 1.19451 69.1113 1.5257 68.5207C1.86871 67.9301 2.29451 67.4458 2.80312 67.0561C3.32355 66.6663 3.90312 66.3828 4.54183 66.2056C5.18054 66.0402 5.86656 66.0048 6.58806 66.1111C7.30957 66.2174 7.94828 66.4418 8.51602 66.7844C9.08376 67.1269 9.55688 67.564 9.93537 68.0837C10.3139 68.6034 10.5859 69.194 10.7515 69.8555C10.9053 70.5169 10.9408 71.202 10.8343 71.9344H10.8225ZM10.1601 71.8399C10.2547 71.2138 10.2311 70.6232 10.0891 70.0563C9.9472 69.4893 9.71064 68.9814 9.37946 68.5325C9.04828 68.0837 8.6343 67.7057 8.13753 67.4104C7.64075 67.1151 7.08484 66.9261 6.46978 66.8316C5.8429 66.7371 5.2515 66.7726 4.69559 66.9143C4.13968 67.0561 3.6429 67.3041 3.19344 67.6348C2.74398 67.9656 2.37731 68.3908 2.08161 68.8869C1.78591 69.3948 1.59666 69.95 1.50204 70.576C1.40742 71.202 1.43107 71.7926 1.57301 72.3596C1.71494 72.9266 1.9515 73.4345 2.28269 73.8833C2.61387 74.3322 3.02785 74.7102 3.51279 75.0055C3.99774 75.3008 4.55365 75.4897 5.18054 75.5842C5.79559 75.6787 6.38699 75.6433 6.9429 75.5015C7.49882 75.3598 8.00742 75.1118 8.45688 74.7692C8.90634 74.4267 9.28484 74.0014 9.56871 73.5053C9.85258 73.0092 10.0537 72.4423 10.1483 71.8162L10.1601 71.8399Z" fill="currentColor"/>
<path d="M12.916 62.2132C12.7149 62.9219 12.3956 63.5597 11.9698 64.1149C11.544 64.6819 11.0945 65.0717 10.6096 65.3079L10.1838 64.8472C10.6096 64.6228 11.0235 64.2566 11.4257 63.7487C11.816 63.2526 12.1117 62.6857 12.301 62.0478C12.4902 61.41 12.5494 60.8666 12.502 60.4178C12.4547 59.9689 12.3128 59.6028 12.0881 59.3193C11.8633 59.0476 11.5795 58.8586 11.2365 58.7523C10.8225 58.6342 10.4676 58.646 10.1601 58.7995C9.85258 58.9413 9.56871 59.1775 9.32032 59.4846C9.07193 59.7917 8.83538 60.1461 8.62247 60.5359C8.40957 60.9257 8.17301 61.3155 7.93645 61.7053C7.69989 62.0951 7.43968 62.4494 7.15581 62.7447C6.87193 63.04 6.54075 63.2526 6.16226 63.3826C5.78376 63.5007 5.34613 63.4889 4.84935 63.3471C4.39989 63.2172 4.00957 62.981 3.70204 62.6266C3.39451 62.2841 3.18161 61.8234 3.09882 61.2564C3.00419 60.6894 3.07516 60.0162 3.29989 59.2366C3.45365 58.7051 3.67839 58.209 3.98591 57.7483C4.29344 57.2758 4.62462 56.8978 4.99129 56.6143L5.47623 57.0396C5.08591 57.3585 4.76656 57.7365 4.49451 58.1499C4.2343 58.5751 4.03322 58.9885 3.91494 59.4256C3.73753 60.028 3.67839 60.5595 3.73753 61.0084C3.79667 61.4572 3.9386 61.8234 4.17516 62.0951C4.41172 62.3667 4.69559 62.5557 5.05043 62.662C5.46441 62.7802 5.81925 62.7683 6.12677 62.6266C6.4343 62.4849 6.70634 62.2604 6.95473 61.9415C7.20312 61.6226 7.43968 61.28 7.66441 60.8784C7.88914 60.4768 8.11387 60.087 8.35043 59.7091C8.58699 59.3193 8.8472 58.9767 9.13107 58.6814C9.41494 58.3743 9.74613 58.1617 10.1128 58.0318C10.4795 57.9018 10.9171 57.9137 11.402 58.0554C11.8515 58.1853 12.23 58.4216 12.5375 58.7877C12.8569 59.1421 13.058 59.6028 13.1408 60.1815C13.2235 60.7485 13.1526 61.4336 12.9278 62.225L12.916 62.2132Z" fill="currentColor"/>
</svg>
