<svg width="131" height="131" viewBox="0 0 131 131" fill="currentColor" xmlns="http://www.w3.org/2000/svg">
<path d="M65.0871 10.3269C95.828 10.3269 120.832 35.2973 120.832 65.9964C120.832 96.6955 95.828 121.666 65.0871 121.666C34.3462 121.666 9.34194 96.6955 9.34194 65.9964C9.34194 35.2973 34.3581 10.3269 65.0871 10.3269ZM65.0871 8C33.0097 8 7 33.9743 7 66.0082C7 98.042 33.0097 124.016 65.0871 124.016C97.1645 124.016 123.174 98.042 123.174 66.0082C123.174 33.9743 97.1645 8 65.0871 8Z" fill="currentColor"/>
<path d="M65.5001 130.353C64.8495 130.353 64.3291 129.834 64.3291 129.184V1.59198C64.3291 0.94233 64.8495 0.422607 65.5001 0.422607C66.1506 0.422607 66.671 0.94233 66.671 1.59198V129.196C66.671 129.834 66.1506 130.365 65.5001 130.365V130.353Z" fill="currentColor"/>
<path d="M129.395 66.5574H1.61726C0.966719 66.5574 0.446289 66.0376 0.446289 65.388C0.446289 64.7383 0.966719 64.2186 1.61726 64.2186H129.395C130.045 64.2186 130.566 64.7383 130.566 65.388C130.566 66.0376 130.045 66.5574 129.395 66.5574Z" fill="currentColor"/>
<path d="M65.5001 80.8734C57.3033 80.8734 50.6441 74.2115 50.6441 66.0258C50.6441 57.8402 57.3151 51.1783 65.5001 51.1783C73.685 51.1783 80.3678 57.8402 80.3678 66.0258C80.3678 74.2115 73.6968 80.8734 65.5001 80.8734ZM65.5001 52.3595C57.9538 52.3595 51.8033 58.4898 51.8033 66.0376C51.8033 73.5854 57.942 79.7158 65.5001 79.7158C73.0581 79.7158 79.1968 73.5854 79.1968 66.0376C79.1968 58.4898 73.0581 52.3595 65.5001 52.3595Z" fill="currentColor"/>
<path d="M75.6625 67.8279C76.6506 62.2256 72.904 56.8841 67.2941 55.8973C61.6842 54.9105 56.3355 58.652 55.3473 64.2543C54.3591 69.8566 58.1058 75.1981 63.7157 76.1849C69.3255 77.1717 74.6743 73.4302 75.6625 67.8279Z" fill="currentColor"/>
<path d="M65.5001 94.7405C49.6506 94.7405 36.7581 81.8656 36.7581 66.0376C36.7581 50.2097 49.6506 37.3347 65.5001 37.3347C81.3495 37.3347 94.242 50.2097 94.242 66.0376C94.242 81.8656 81.3495 94.7405 65.5001 94.7405ZM65.5001 38.4923C50.2893 38.4923 37.9291 50.8475 37.9291 66.0258C37.9291 81.2041 50.3011 93.5593 65.5001 93.5593C80.699 93.5593 93.071 81.2041 93.071 66.0258C93.071 50.8475 80.699 38.4923 65.5001 38.4923Z" fill="currentColor"/>
</svg>
